<?xml version="1.0" standalone="no"?>
<!DOCTYPE svg PUBLIC "-//W3C//DTD SVG 20010904//EN"
 "http://www.w3.org/TR/2001/REC-SVG-20010904/DTD/svg10.dtd">
<svg version="1.0" xmlns="http://www.w3.org/2000/svg"
 width="1024.000000pt" height="1024.000000pt" viewBox="0 0 1024.000000 1024.000000"
 preserveAspectRatio="xMidYMid meet">

<!-- 원형 그라데이션 정의 -->
<defs>
  <radialGradient id="backgroundGradient" cx="50%" cy="50%" r="70%">
    <stop offset="0%" style="stop-color:#3498DB;stop-opacity:1" />
    <stop offset="100%" style="stop-color:#2C3E50;stop-opacity:1" />
  </radialGradient>
</defs>

<g transform="translate(0.000000,1024.000000) scale(0.100000,-0.100000)"
fill="#000000" stroke="none">
<!-- Background rectangle with gradient -->
<path d="M0 5120 l0 -5120 5120 0 5120 0 0 5120 0 5120 -5120 0 -5120 0 0 -5120z" fill="url(#backgroundGradient)"/>

<!-- Light ray 1 -->
<path d="M4918 8727 c22 -23 22 -28 23 -362 l2 -339 -28 -24 c-33 -28 -77 -24 -110 9 -19 19 -20 35 -23 354 l-3 335 25 25 c33 33 84 34 114 2z" fill="#F1C40F"/>

<!-- Light ray 2 -->
<path d="M4590 8455
c22 -24 25 -37 31 -158 4 -73 10 -171 14 -219 7 -84 7 -87 -18 -112 -34 -34
-85 -35 -116 -2 -28 29 -38 98 -47 306 -6 150 -6 156 15 183 30 37 87 38 121
2z" fill="#F1C40F"/>

<!-- Light ray 3 -->
<path d="M5237 8398 c22 -21 23 -28 23 -168 0 -199 -13 -230 -94 -230 -25 0 -40 7 -55 26 -19 24 -21 40 -21 163 0 145 10 204 38 220 30 18 84 13 109 -11z" fill="#F1C40F"/>

<!-- Light ray 4 -->
<path d="M4278 8278
c16 -18 27 -59 48 -181 l27 -158 -20 -27 c-31 -42 -111 -43 -133 -2 -15 28 -60 255 -60 304 0 61 22 86 74 86 31 0 48 -6 64 -22z" fill="#F1C40F"/>

<!-- Light ray 5 -->
<path d="M6185 8255 c14 -13 25 -36 25 -51 0 -14 -23 -97 -51 -184 -47 -147 -53 -160 -80 -169 -35 -12 -85 3 -99 29 -6 10 -10 31 -10 47 0 40 88 314 107 335 24 27 79 23 108 -7z" fill="#F1C40F"/>

<!-- Light ray 6 -->
<path d="M5553 8228
c19 -25 19 -29 4 -118 -9 -54 -22 -99 -33 -111 -23 -25 -74 -24 -108 2 -29 23 -34 65 -16 160 16 83 32 101 87 97 36 -2 50 -9 66 -30z" fill="#F1C40F"/>

<!-- Light ray 7 -->
<path d="M5836 8177 c22 -19 26 -31 26 -69 -2 -64 -32 -148 -63 -170 -30 -22 -65 -17 -99 14 -19 18 -22 28 -16 72 17 150 81 214 152 153z" fill="#F1C40F"/>

<!-- Light ray 8 -->
<path d="M3982 8093 c20 -18 78 -186 78 -226 0 -65 -84 -100 -134 -54 -28 25 -78 169 -78 223 0 72 79 105 134 57z" fill="#F1C40F"/>

<!-- Light ray 9 -->
<path d="M3661 8082 c29 -30 152 -305 153 -341 0 -62 -71 -101 -121 -66 -25 17 -173 317 -173 349 0 28 26 65 54 76 27 12 66 3 87 -18z" fill="#F1C40F"/>

<!-- Light ray 10 -->
<path d="M6757 7998 c39 -37 31 -74 -49 -215 -81
-143 -97 -163 -134 -163 -32 0 -84 50 -84 82 0 26 142 287 167 306 26 19 74 14 100 -10z" fill="#F1C40F"/>

<!-- Light ray 11 -->
<path d="M6417 7984 c23 -23 25 -31 20 -74 -3 -27 -18 -73 -32 -103 -42 -89 -112 -100 -154 -25 -14 24 -13 33 8 100 32 100 53 128 97 128 24 0 43 -8 61 -26z" fill="#F1C40F"/>

<!-- Light ray 12 -->
<path d="M3481 7761 c47 -56 81 -134 73 -165 -8 -32 -48 -66 -78 -66 -34 0 -60 24 -105 98 -46 76 -50 107 -21 145 37 46 86 42 131 -12z" fill="#F1C40F"/>

<!-- Light ray 13 -->
<path d="M6924 7699 c47 -37 26 -112 -58 -202 -36 -39 -86 -37 -121 5 -32 38 -28 62 21 130 66 89 108 107 158 67z" fill="#F1C40F"/>

<!-- Light ray 14 -->
<path d="M3202 7631 c40 -32 118 -156 118 -188 -1 -44 -42 -83 -88 -83 -22 0 -97
76 -136 138 -34 54 -33 86 3 123 34 34 68 37 103 10z" fill="#F1C40F"/>

<!-- Light ray 15 -->
<path d="M7181 7531 c36 -37 36 -58 0 -107 -60 -81 -110 -124 -144 -124 -65 0 -101 54 -73 108 8 15 41 55 74 90 70 72 97 79 143 33z" fill="#F1C40F"/>

<!-- MAIN LIGHT BULB - Center piece -->
<path d="M5445 7490 c464 -99 836 -345 1089 -718 277 -410 350
-937 196 -1414 -68 -210 -192 -421 -384 -658 -265 -325 -345 -482 -376 -739
-14 -107 -41 -170 -94 -219 -75 -69 -51 -67 -761 -67 -637 0 -640 0 -680 22
-42 22 -113 92 -135 132 -6 12 -20 78 -31 147 -39 255 -108 391 -364 712 -215
270 -319 450 -396 684 -106 321 -107 678 -5 992 166 506 570 911 1074 1076
100 32 207 56 337 74 17 2 120 3 230 1 158 -3 221 -8 300 -25z M4969 6932 c-30 -27 -32 -33 -41 -138 -5 -60 -11 -114 -13 -120 -2 -7 -28 -20 -57 -29 -29 -10 -79 -28 -111 -42 l-58 -24 -85 66 c-95 73 -126 89 -158 79 -35 -11 -194 -173 -201 -205 -8 -35 3 -55 81 -152 l62 -78 -22 -52 c-13 -29 -31 -77 -41 -107 -10 -30 -18 -56 -19 -57 -1 -1 -49 -7 -108 -14 -117 -13 -162 -32 -178 -75 -6 -14 -10 -68 -10 -120 0 -103 15 -155 49 -173 17 -9 197 -40 237 -41 6 0 18 -26 28 -57 10 -32 29 -79 42 -106 l24 -47 -70 -93 c-59 -79 -70 -100 -70 -133 0 -36 7 -46 95 -131 118 -116 131 -118 232 -42 37 29 78 61 90 72 l22 19 93 -36 c51 -21 103 -41 114 -46 19 -8 23 -19 28 -102 9 -127 13 -142 42 -169 24 -23 33 -24 154 -24 121 0 130 1 154 24 29 27 33 42 42 169 5 83 9 94 28 102 11 5 62 25 113 45 l92 37 92 -71 c128 -99 134 -98 255 21 122 119 122 126 24 255 l-70 92 41 103 c23 57 44 106 48 110 3 3 56 13 118 22 120 16 145 26 162 63 14 30 14 223 1 257 -15 42 -53 58 -173 73 l-113 15 -26 72 c-14 39 -33 87 -42 107 l-15 37 69 88 c98 125 98 132 -22 251 -51 50 -103 94 -114 97 -32 10 -61 -5 -152 -79 l-83 -67 -87 35 c-48 19 -99 37 -113 40 -25 7 -27 10 -33 99 -15 195 -27 208 -197 208 -116 0 -119 -1 -150 -28z m232 -622 c168 -31 322 -173 364 -335 59 -228 -64 -462 -284 -540 -262 -92 -530 41 -611 303 -97 313 200 634 531 572z" fill="#F1C40F" fill-rule="evenodd"/>

<!-- Light ray outer ring -->
<path d="M2928 7466 c35
-18 168 -157 176 -184 9 -27 -9 -68 -38 -87 -43 -28 -76 -12 -170 84 -97 100 -108 130 -61 176 27 28 54 31 93 11z" fill="#F1C40F"/>

<!-- Light ray outer ring 2 -->
<path d="M2550 7402 c14 -9 105 -84 203 -165 163 -136 177 -151 177 -181 0 -57 -64 -101 -114 -78 -29 13 -277 210 -338 269 -41 39 -48 51 -48 85 0 72 64 109 120 70z" fill="#F1C40F"/>

<!-- Light ray outer ring 3 -->
<path d="M7368 7294 c37 -41 29 -70 -36 -136 -50
-49 -64 -58 -95 -58 -27 0 -41 7 -56 26 -37 47 -21 96 50 154 70 57 95 59 137 14z" fill="#F1C40F"/>

<!-- Light ray outer ring 4 -->
<path d="M7775 7275 c30 -29 33 -74 8 -103 -17 -20 -214 -182 -301 -249 -24 -18 -55 -33 -68 -33 -37 0 -74 42 -74 84 0 38 22 61 193 199 168 137 196 148 242 102z" fill="#F1C40F"/>

<!-- Light ray outer ring 5 -->
<path d="M2641 6930 c95 -69 109 -84 109 -118 0 -31 -52 -82 -84 -82 -28 0 -201 112
-216 140 -29 54 11 120 73 120 26 0 55 -15 118 -60z" fill="#F1C40F"/>

<!-- Light ray outer ring 6 -->
<path d="M7725 6845 c48 -48 24 -101 -70 -155 -67 -38 -107 -35 -130 10 -31 61 -15 93 75 144 57 33 94 33 125 1z" fill="#F1C40F"/>

<!-- Light ray outer ring 7 -->
<path d="M2510 6670 c66 -33 90 -58 90 -96 0 -43 -28 -75 -66 -76 -36 -1 -139 44 -171 74 -29 27 -31 88 -5 110 34 31 72 28 152 -12z" fill="#F1C40F"/>

<!-- Light ray outer ring 8 -->
<path d="M8035 6665 c29 -28 32 -61 9
-94 -16 -22 -303 -171 -331 -171 -23 0 -73 56 -73 82 0 13 7 34 16 47 21 29 287 161 326 161 17 0 39 -10 53 -25z" fill="#F1C40F"/>

<!-- Light ray outer ring 9 -->
<path d="M2387 6395 c100 -36 127 -81 82 -139 -15 -19 -30 -26 -54 -26 -46 0 -146 37 -167 62 -32 36 -20 89 27 116 28 16 35 15 112 -13z" fill="#F1C40F"/>

<!-- Light ray outer ring 10 -->
<path d="M7989 6314 c42 -54 20 -105 -58 -135 -91 -35 -125 -36 -155 -6 -29
29 -34 72 -12 102 18 24 120 64 168 64 28 1 41 -5 57 -25z" fill="#F1C40F"/>

<!-- Light ray outer ring 11 -->
<path d="M2164 6159 c180 -43 220 -58 230 -84 20 -52 -10 -115 -54 -115 -11 0 -104 19 -207 41 -195 43 -225 57 -237 105 -7 26 15 79 36 87 28 11 68 5 232 -34z" fill="#F1C40F"/>

<!-- Light ray outer ring 12 -->
<path d="M8051 6031 c18 -14 24 -29 24 -60 0 -53 -16 -67 -98 -87 -63 -16 -71 -16 -102 -1 -57 27 -58 95
-2 132 23 15 88 32 133 34 12 1 32 -8 45 -18z" fill="#F1C40F"/>

<!-- Light ray outer ring 13 -->
<path d="M2284 5826 c58 -24 72 -73 34 -121 -21 -27 -23 -28 -99 -22 -43 4 -94 13 -114 21 -56 24 -68 82 -26 130 14 16 26 18 93 13 42 -4 93 -13 112 -21z" fill="#F1C40F"/>

<!-- 중앙 세로 축 -->
<path d="M2934 5789 l26 -20 0 -642 0 -641 -22 -23 c-30 -32 -81 -31 -113 2 l-25 24 0 631 c0 428 3 638 11 651 21 41 83 50 123
18z" fill="#F1C40F"/>

<!-- 중앙 세로 축 2 -->
<path d="M7414 5789 l26 -20 0 -649 0 -649 -22 -15 c-36 -26 -93 -21 -117 10 -21 26 -21 34 -21 656 0 426 3 636 11 649 21 41 83 50 123 18z" fill="#F1C40F"/>

<!-- Light ray outer ring 14 -->
<path d="M8346 5775 c43 -29 34
-121 -13 -140 -23 -8 -316 -45 -366 -45 -27 0 -45 7 -62 25 -33 32 -32 70 3 104 22 22 42 29 112 40 236 34 297 37 326 16z" fill="#F1C40F"/>

<!-- Light ray outer ring 15 -->
<path d="M2095 5560 c127 -12 171 -24 185 -50 15 -28 12 -72 -6 -98 -14 -20 -23 -22 -117 -21 -143 1 -202 11 -232 39 -38 36 -28 106 19 128 27 14 23 14 151 2z" fill="#F1C40F"/>

<!-- Light ray outer ring 16 -->
<path d="M8230 5460 c46 -24 45 -116 0
-140 -37 -20 -240 -30 -277 -15 -64 27 -50 138 20 149 101 17 231 20 257 6z" fill="#F1C40F"/>

<!-- 중앙 세로 축 3 -->
<path d="M2631 5401 c24 -19 24 -21 27 -265 2 -170 0 -251 -8 -266 -14 -26 -72 -52 -97 -43 -10 3 -28 15 -40 26 -23 20 -23 24 -23 269 l0 249 25 24 c30 31 83 33 116 6z" fill="#F1C40F"/>

<!-- 중앙 세로 축 4 -->
<path d="M7725 5395 l25 -24 0 -244 c0 -229 -1 -246 -20 -270 -11 -13 -31 -28 -45 -31
-30 -8 -80 15 -95 43 -15 28 -13 476 2 504 28 53 92 64 133 22z" fill="#F1C40F"/>

<!-- 중앙 세로 축 5 -->
<path d="M3235 5299 c18 -18 20 -35 23 -187 4 -194 -4 -234 -48 -252 -38 -16 -82 0 -99 36 -16 36 -15 351 2 384 25 50 80 59 122 19z" fill="#F1C40F"/>

<!-- 중앙 세로 축 6 -->
<path d="M7095 5316 c49 -21 57 -59 53 -254 l-3 -164 -28 -24 c-36 -31 -68 -30 -101 2 l-26 27 0 186 c0 195 2 206 45 229 25 14 20
14 60 -2z" fill="#F1C40F"/>

<!-- 가로 축 1 -->
<path d="M2287 5218 c30 -28 32 -89 3 -118 -19 -19 -33 -20 -353 -20 -322 0 -334 1 -355 20 -35 33 -33 84 4 118 25 22 27 22 351 22 322 0 327 0 350 -22z" fill="#F1C40F"/>

<!-- 가로 축 2 -->
<path d="M8654 5139 c20 -16 26 -29 26 -59 0 -30 -6 -43 -26 -59 -26 -20 -38 -21 -356 -21 l-329 0 -24 25 c-14 13 -25 34 -25 45 0 26 25 77 42 83 7 3 160 6 339 6
316 1 327 0 353 -20z" fill="#F1C40F"/>

<!-- 작은 세로 구조물 1 -->
<path d="M3503 5118 c12 -14 17 -38 17 -83 0 -79 -24 -115 -75 -115 -49 0 -65 28 -65 116 0 67 2 74 27 94 32 25 69 20 96 -12z" fill="#F1C40F"/>

<!-- 작은 세로 구조물 2 -->
<path d="M6823 5139 c33 -18 37 -28 37 -108 0 -86 -14 -111 -65 -111 -45 0 -67 29 -73 95 -5 63 11 113 42 125 29 12 34 12 59 -1z" fill="#F1C40F"/>

<!-- 하단 구조물 -->
<path d="M2304 4921 c29 -32 22 -113 -11 -125 -9 -4 -86
-14 -171 -23 -137 -15 -157 -15 -180 -2 -50 28 -55 104 -9 133 26 18 145 33 268 35 73 1 89 -2 103 -18z" fill="#F1C40F"/>

<!-- 하단 구조물 2 -->
<path d="M8112 4849 c57 -6 115 -15 130 -21 55 -21 60 -107 6 -137 -37 -21 -288 3 -324 31 -40 32 -29 109 19 128 30 12 50 12 169 -1z" fill="#F1C40F"/>

<!-- 하단 구조물 3 -->
<path d="M2340 4630 c28 -28 26 -81 -3 -108 -31 -29 -136 -56 -170 -43 -51 20 -71 76
-42 119 33 46 179 68 215 32z" fill="#F1C40F"/>

<!-- 하단 구조물 4 -->
<path d="M8101 4530 c179 -44 209 -61 209 -121 0 -32 -38 -79 -64 -79 -36 0 -360 91 -377 106 -48 44 -15 130 52 133 8 1 89 -17 180 -39z" fill="#F1C40F"/>

<!-- 하단 구조물 5 -->
<path d="M2415 4365 c31 -30 32 -73 5 -108 -21 -27 -181 -87 -230 -87 -33 1 -59 22 -69 56 -17 61 15 91 144 136 100 34 120 34 150 3z" fill="#F1C40F"/>

<!-- 하단 구조물 6 -->
<path d="M7926 4265 c37 -14 73 -30
80 -36 17 -14 27 -63 19 -89 -9 -29 -59 -52 -92 -44 -48 12 -117 45 -140 66 -45 42 -16 128 42 128 14 0 55 -11 91 -25z" fill="#F1C40F"/>

<!-- 하단 구조물 7 -->
<path d="M2509 4094 c27 -35 27 -77 -1 -107 -27 -29 -343 -177 -378 -177 -59 0 -95 94 -52 133 33 30 346 176 379 176 23 1 37 -6 52 -25z" fill="#F1C40F"/>

<!-- 하단 구조물 8 -->
<path d="M7899 3954 c149 -77 191 -109 191 -145 0 -29 -53 -79 -84
-79 -34 0 -301 145 -326 178 -11 13 -20 33 -20 44 0 24 52 78 76 78 9 0 83 -34 163 -76z" fill="#F1C40F"/>

<!-- 하단 구조물 9 -->
<path d="M2643 3828 c26 -31 22 -80 -10 -110 -82 -76 -168 -77 -193 -3 -16 49 5 79 83 116 66 31 91 30 120 -3z" fill="#F1C40F"/>

<!-- 하단 구조물 10 -->
<path d="M7670 3739 c111 -59 150 -113 120 -168 -12 -24 -64 -45 -93 -37 -39 9 -156 104 -163 131 -10 38 3 73 34 89 36 20 36
20 102 -15z" fill="#F1C40F"/>

<!-- 하단 구조물 11 -->
<path d="M2786 3587 c31 -27 37 -74 13 -103 -7 -9 -76 -63 -153 -120 -156 -117 -178 -124 -220 -73 -29 34 -32 50 -14 82 13 25 24 34 181 150 69 50 129 87 143 87 12 0 35 -11 50 -23z" fill="#F1C40F"/>

<!-- 하단 구조물 12 -->
<path d="M7585 3435 c72 -53 136 -103 143 -112 18 -25 15 -67 -9 -97 -30 -39 -75 -35 -136 11 -224 170 -242 189 -223 237 11 29 47
56 75 56 11 0 79 -43 150 -95z" fill="#F1C40F"/>

<!-- 중앙 대형 구조물 -->
<path d="M5781 3452 c41 -45 41 -102 0 -143 l-29 -29 -630 0 -630 0 -31 26 c-59 49 -49 132 19 167 32 16 80 17 653 15 l619 -3 29 -33z" fill="#F1C40F"/>

<!-- 하단 구조물 13 -->
<path d="M2961 3362 c30 -25 30 -74 -2 -108 -91 -99 -178 -111 -203 -27 -10 31 12 67 68 113 55 45 99 52 137 22z" fill="#F1C40F"/>

<!-- 하단 구조물 14 -->
<path d="M7339 3254 c104 -78 124 -122 76 -169 -42 -42
-81 -34 -161 33 -60 50 -69 63 -72 95 -2 28 2 42 22 62 36 36 66 31 135 -21z" fill="#F1C40F"/>

<!-- 하단 구조물 15 -->
<path d="M3143 3168 c63 -33 61 -74 -5 -145 -112 -118 -163 -140 -213 -93 -44 41 -35 76 38 146 108 105 132 118 180 92z" fill="#F1C40F"/>

<!-- 중앙 대형 구조물 2 -->
<path d="M5705 3075 c50 -49 24 -143 -48 -176 -39 -17 -72 -19 -539 -19 -327 0 -506 4 -525 11 -88 33 -120 133 -60 189 20 19 38
20 584 20 l564 0 24 -25z" fill="#F1C40F"/>

<!-- 하단 구조물 16 -->
<path d="M7100 3084 c14 -9 94 -85 178 -168 143 -142 152 -153 152 -189 0 -45 -36 -87 -74 -87 -54 0 -366 314 -366 368 0 33 24 70 54 82 29 12 28 12 56 -6z" fill="#F1C40F"/>

<!-- 하단 구조물 17 -->
<path d="M3375 2965 c38 -37 32 -69 -28 -144 -30 -36 -75 -95 -102 -131 -60 -82 -93 -110 -128 -110 -40 0 -62 14 -77 49 -18 44 9 92 135 239 98
113 108 122 141 122 24 0 43 -8 59 -25z" fill="#F1C40F"/>

<!-- 하단 구조물 18 -->
<path d="M6909 2876 c13 -11 46 -47 72 -79 58 -69 65 -112 24 -152 -39 -40 -77 -34 -131 23 -115 119 -136 195 -61 227 36 15 64 9 96 -19z" fill="#F1C40F"/>

<!-- 하단 구조물 19 -->
<path d="M3605 2795 c14 -13 25 -33 25 -44 0 -29 -78 -168 -107 -191 -47 -37 -114 -18 -127 36 -8 32 36 127 86 188 37 45 85 50 123 11z" fill="#F1C40F"/>

<!-- 하단 구조물 20 -->
<path d="M6662 2727 c28
-22 179 -268 185 -302 12 -72 -80 -117 -131 -64 -44 45 -179 273 -179 302 -1 59 78 99 125 64z" fill="#F1C40F"/>

<!-- 중심부 핵심 구조물 -->
<path d="M5425 2693 c-43 -67 -69 -95 -113 -117 -62 -31 -102 -39 -186 -38 -130 3 -233 50 -294 135 l-33 47 322 0 321 0 -17 -27z" fill="#F1C40F"/>

<!-- 하단 구조물 21 -->
<path d="M3863 2649 c24 -30 21 -61 -13 -128 -36 -71 -74 -105 -110 -96 -34 8 -60 41 -60 77 0 40
46 133 78 159 32 25 78 20 105 -12z" fill="#F1C40F"/>

<!-- 하단 구조물 22 -->
<path d="M6418 2577 c30 -32 72 -132 72 -172 0 -64 -86 -99 -131 -54 -28 28 -79 144 -79 179 0 61 95 93 138 47z" fill="#F1C40F"/>

<!-- 하단 구조물 23 -->
<path d="M4115 2525 c14 -13 25 -33 25 -45 0 -31 -129 -343 -147 -357 -20 -15 -67 -17 -92 -3 -10 5 -24 22 -30 38 -13 32 -12 36 78 242 28 63 60 123 72 133 30 24 66 21 94 -8z" fill="#F1C40F"/>
<!-- 하단 구조물 24 -->
<path d="M6142 2473 c19 -17 108 -274 108 -311 0 -57 -95 -96 -132 -54 -25 27 -112 306 -104 335 7 29 62 59 91 51 11 -4 28 -13 37 -21z" fill="#F1C40F"/>

<!-- 하단 구조물 25 -->
<path d="M4388 2438 c31 -27 32 -54 1 -152 -21 -69 -37 -100 -56 -115 -33 -27 -73 -27 -102 1 -21 18 -23 28 -18 72 10 86 48 189 77 204 27 14 75 9 98 -10z" fill="#F1C40F"/>

<!-- 하단 구조물 26 -->
<path d="M5849 2403 c24 -20 50 -112 51 -180 0
-79 -74 -111 -129 -55 -21 20 -30 45 -40 100 -16 87 -10 117 27 136 36 20 65 20 91 -1z" fill="#F1C40F"/>

<!-- 하단 구조물 27 -->
<path d="M4664 2369 c21 -16 26 -29 26 -62 0 -62 -26 -150 -51 -169 -30 -25 -84 -23 -110 3 -20 20 -21 29 -16 99 5 76 25 133 49 143 30 12 77 6 102 -14z" fill="#F1C40F"/>

<!-- 최종 구조물 -->
<path d="M5564 2341 c18 -20 28 -75 47 -259 12 -118 11 -124 -8 -150 -31 -41 -111 -43
-133 -2 -12 22 -40 260 -40 342 0 47 4 59 22 72 31 22 91 20 112 -3z" fill="#F1C40F"/>

<!-- 최종 구조물 2 -->
<path d="M4968 2314 c27 -30 27 -49 7 -235 -18 -156 -25 -183 -54 -198 -53 -29 -131 8 -131 61 1 58 40 350 50 368 24 46 89 47 128 4z" fill="#F1C40F"/>

<!-- 최종 구조물 3 -->
<path d="M5266 2315 l25 -25 -3 -331 -3 -331 -29 -25 c-33 -28 -75 -26 -108 4 -17 15 -18 40 -18 350 l0 334 25 24 c32 33 78 33
111 0z" fill="#F1C40F"/>

</g>
</svg>
